# AST/ASF file generated using VICON BodyLanguage
# -----------------------------------------------
:version 1.10
:name VICON
:units
  mass 1.0
  length 0.45
  angle deg
:documentation
   .ast/.asf automatically generated from VICON data using
   VICON BodyBuilder and BodyLanguage model FoxedUp or BRILLIANT.MOD
:root
   order TX TY TZ RX RY RZ
   axis XYZ
   position 0 0 0  
   orientation 0 0 0 
:bonedata
  begin
     id 1 
     name lhipjoint
     direction 0.561001 -0.76473 0.316963 
     length 2.4722 
     axis 0 0 0  XYZ
  end
  begin
     id 2 
     name lfemur
     direction 0.34202 -0.939693 0  
     length 7.59403  
     axis 0 0 20  XYZ
    dof rx ry rz
    limits (-160.0 20.0)
           (-70.0 70.0)
           (-60.0 70.0)
  end
  begin
     id 3 
     name ltibia
     direction 0.34202 -0.939693 0   
     length 7.89655   
     axis 0 0 20   XYZ
    dof rx
    limits (-10.0 170.0)
  end
  begin
     id 4 
     name lfoot
     direction 0.061296 -0.168409 0.98381   
     length 2.73287   
     axis -90 7.62852e-016 20   XYZ
    dof rx rz
    limits (-45.0 90.0)
           (-70.0 20.0)
  end
  begin
     id 5 
     name ltoes
     direction 1.53547e-011 -4.21984e-011 1   
     length 1.37057   
     axis -90 7.62852e-016 20   XYZ
    dof rx
    limits (-90.0 20.0)
  end
  begin
     id 6 
     name rhipjoint
     direction -0.559611 -0.765599 0.317323   
     length 2.46939  
     axis 0 0 0  XYZ 
  end
  begin
     id 7 
     name rfemur
     direction -0.34202 -0.939693 0   
     length 7.53712   
     axis 0 0 -20   XYZ
    dof rx ry rz
    limits (-160.0 20.0)
           (-70.0 70.0)
           (-70.0 60.0)
  end
  begin
     id 8 
     name rtibia
     direction -0.34202 -0.939693 0   
     length 8.12549   
     axis 0 0 -20   XYZ
    dof rx
    limits (-10.0 170.0)
 end
 begin
     id 9 
     name rfoot
     direction -0.066984 -0.184037 0.980634   
     length 2.67541  
     axis -90 -7.62852e-016 -20   XYZ
    dof rx rz
    limits (-45.0 90.0)
           (-20.0 70.0)
  end
  begin
     id 10 
     name rtoes
     direction -1.53549e-011 -4.21786e-011 1   
     length 1.34085   
     axis -90 -7.62852e-016 -20   XYZ
    dof rx
    limits (-90.0 20.0)
  end
  begin
     id 11 
     name lowerback
     direction -0.0522728 0.992594 -0.109658   
     length 2.05633   
     axis 0 0 0   XYZ
    dof rx ry rz
    limits (-20.0 45.0)
           (-30.0 30.0)
           (-30.0 30.0)
  end
  begin
     id 12 
     name upperback
     direction 0.00589338 0.999977 0.00335704   
     length 2.05845   
     axis 0 0 0   XYZ
    dof rx ry rz
    limits (-20.0 45.0)
           (-30.0 30.0)
           (-30.0 30.0)
  end
  begin
     id 13 
     name thorax
     direction 0.0292928 0.998059 0.0549487   
     length 2.09281   
     axis 0 0 0   XYZ
    dof rx ry rz
    limits (-20.0 45.0)
           (-30.0 30.0)
           (-30.0 30.0)
  end
  begin
     id 14 
     name lowerneck
     direction 0.0356368 0.980775 0.191858   
     length 1.84767   
     axis 0 0 0   XYZ
    dof rx ry rz
    limits (-20.0 45.0)
           (-30.0 30.0)
           (-30.0 30.0)
  end
  begin
     id 15 
     name upperneck
     direction -0.0227605 0.98931 -0.14404   
     length 1.89582   
     axis 0 0 0   XYZ
    dof rx ry rz
    limits (-20.0 45.0)
           (-30.0 30.0)
           (-30.0 30.0)
  end
  begin
     id 16
     name head
     direction -0.00932985 0.997511 -0.0698904  
     length 1.90213  
     axis 0 0 0   XYZ
    dof rx ry rz
    limits (-20.0 45.0)
           (-30.0 30.0)
           (-30.0 30.0)
  end
  begin
     id 17 
     name lclavicle
     direction 0.873442 0.479511 0.0846686  
     length 3.41193  
     axis 0 0 0   XYZ
    dof ry rz
    limits (-20.0 10.0)
           (0.0 20.0)
  end
  begin
     id 18 
     name lhumerus
     direction 1 -4.4897e-011 -5.62117e-018   
     length 5.59864   
     axis 180 -30 -90   XYZ
    dof rx ry rz
    limits (-60.0 90.0)
           (-90.0 90.0)
           (-90.0 90.0)
  end
  begin
     id 19
     name lradius
     direction 1 -4.48966e-011 -6.26295e-027   
     length 3.59542   
     axis 180 -30 -90   XYZ
    dof rx
    limits (-10.0 170.0)
  end
  begin
     id 20
     name lwrist
     direction 1 -4.48947e-011 -1.74096e-026   
     length 1.79771   
     axis 1.04567e-014 90 90   XYZ
    dof ry
    limits (-180.0 0.0)
 end
  begin
     id 21 
     name lhand
     direction 1 -4.49085e-011 -3.48469e-026   
     length 0.572014   
     axis 2.22196e-014 90 90   XYZ
    dof rx rz
    limits (-90.0 90.0)
           (-45.0 45.0)
  end
  begin
     id 22 
     name lfingers
     direction 1 -4.48884e-011 -6.96135e-026   
     length 0.461173   
     axis 4.44383e-014 90 90   XYZ
    dof rx
    limits (0.0 90.0)
  end
  begin
     id 23
     name lthumb
     direction 0.707107 -6.34976e-011 0.707107   
     length 0.662154   
     axis -90 45 -5.4397e-014   XYZ
    dof rx rz
    limits (-45.0 45.0)
           (-45.0 45.0)
  end
  begin
     id 24 
     name rclavicle
     direction -0.890242 0.443271 0.104786   
     length 3.46753  
     axis 0 0 0   XYZ 
    dof ry rz
    limits (-10.0 20.0)
           (-20.0 0.0)
  end
  begin
     id 25 
     name rhumerus
     direction -1 -4.48963e-011 -5.41723e-018  
     length 5.8094   
     axis 180 30 90   XYZ
    dof rx ry rz
    limits (-90.0 60.0)
           (-90.0 90.0)
           (-90.0 90.0)
  end
  begin
     id 26 
     name rradius
     direction -1 -4.48958e-011 -6.51059e-027   
     length 3.66953   
     axis 180 30 90   XYZ
    dof rx
    limits (-10.0 170.0)
  end
  begin
     id 27 
     name rwrist
     direction -1 -4.48975e-011 -1.74124e-026   
     length 1.83476   
     axis 1.04567e-014 -90 -90   XYZ
    dof ry
    limits (-180.0 0.0)
  end
  begin
     id 28
     name rhand
     direction -1 -4.49013e-011 -3.48326e-026   
     length 0.57843   
     axis 2.22196e-014 -90 -90   XYZ
    dof rx rz
    limits (-90.0 90.0)
           (-45.0 45.0)
  end
  begin
     id 29
     name rfingers
     direction -1 -4.49023e-011 -6.9669e-026   
     length 0.466345   
     axis 4.44383e-014 -90 -90   XYZ
    dof rx
    limits (0.0 90.0)
  end
  begin
     id 30
     name rthumb
     direction -0.707107 -6.34926e-011 0.707107   
     length 0.669581   
     axis -90 -45 5.4397e-014   XYZ
    dof rx rz
    limits (-45.0 45.0)
           (-45.0 45.0)
  end
:hierarchy
  begin
    root lhipjoint rhipjoint lowerback
    lhipjoint lfemur
    lfemur ltibia
    ltibia lfoot
    lfoot ltoes
    rhipjoint rfemur
    rfemur rtibia
    rtibia rfoot
    rfoot rtoes
    lowerback upperback
    upperback thorax
    thorax lowerneck lclavicle rclavicle
    lowerneck upperneck
    upperneck head
    lclavicle lhumerus
    lhumerus lradius
    lradius lwrist
    lwrist lhand lthumb
    lhand lfingers
    rclavicle rhumerus
    rhumerus rradius
    rradius rwrist
    rwrist rhand rthumb
    rhand rfingers
  end

#!OML:ASF H:\SkateBoarding\Project 1\Capture day 1\Session 1\Skater.ASF
:FULLY-SPECIFIED
:DEGREES
113
root 2.54361 18.3688 -5.15381 -1.30407 18.7638 -1.80015
lowerback 9.7626 -1.57167 -4.69205
upperback -0.634357 -2.67842 -0.632462
thorax -5.96576 -1.1758 2.36643
lowerneck -13.4759 0.358967 4.60695
upperneck 40.7728 -1.06214 0.876585
head 17.1547 0.479898 -0.599455
rclavicle 4.57702e-014 -7.95139e-015
rhumerus -35.5134 -9.1247 -77.5001
rradius 26.3239
rwrist -0.231944
rhand -42.513 -4.87497
rfingers 7.12502
rthumb -15.3894 -34.2822
lclavicle 4.57702e-014 -7.95139e-015
lhumerus -20.7278 -12.9388 84.8279
lradius 38.2774
lwrist 26.9193
lhand -27.3324 17.0133
lfingers 7.12502
lthumb -0.741089 46.9917
rfemur -38.9026 12.0152 17.0771
rtibia 58.2656
rfoot -14.9067 7.31645
rtoes -15.3727
lfemur -4.20415 -28.1924 -11.9589
ltibia 27.4643
lfoot -4.76023 -14.6778
ltoes 4.3354
114
root 2.54685 18.3582 -4.9146 -1.14646 18.7399 -1.54179
lowerback 9.74202 -1.66423 -4.87682
upperback -0.722806 -2.83479 -0.791043
thorax -6.03631 -1.24573 2.32665
lowerneck -13.5593 0.402465 4.63964
upperneck 40.995 -1.03767 0.9191
head 17.3042 0.505201 -0.581556
rclavicle 3.49613e-014 2.3059e-014
rhumerus -36.1056 -9.79952 -77.3076
rradius 26.3785
rwrist -0.275268
rhand -42.4939 -4.74693
rfingers 7.12502
rthumb -15.3709 -34.1556
lclavicle 3.49613e-014 2.3059e-014
lhumerus -20.4706 -12.7078 84.6872
lradius 37.6539
lwrist 26.4062
lhand -27.1013 16.8626
lfingers 7.12502
lthumb -0.517892 46.8417
rfemur -39.2981 11.9043 16.6928
rtibia 58.3201
rfoot -14.6281 7.38843
rtoes -15.2203
lfemur -3.23313 -28.4004 -12.5041
ltibia 27.3707
lfoot -5.623 -14.6486
ltoes 3.40807
115
root 2.54925 18.3524 -4.67884 -0.964034 18.7637 -1.30557
lowerback 9.71882 -1.76716 -5.03666
upperback -0.811252 -3.00045 -0.921047
thorax -6.10434 -1.32048 2.30396
lowerneck -13.6362 0.445057 4.65246
upperneck 41.1102 -0.993765 0.933089
head 17.3917 0.528529 -0.569768
rclavicle 6.83322e-015 7.95139e-016
rhumerus -36.7318 -10.3011 -77.1482
rradius 26.5486
rwrist -0.579843
rhand -42.4979 -4.59448
rfingers 7.12502
rthumb -15.3748 -34.0028
lclavicle 6.83322e-015 7.95139e-016
lhumerus -20.2542 -12.4254 84.5913
lradius 37.1223
lwrist 25.9666
lhand -26.8922 16.7339
lfingers 7.12502
lthumb -0.315993 46.7134
rfemur -39.6631 11.8265 16.3232
rtibia 58.3078
rfoot -14.4039 7.40093
rtoes -15.0712
lfemur -2.43584 -28.6056 -13.0084
ltibia 27.4446
lfoot -6.40787 -14.4691
ltoes 2.30908
116
root 2.55077 18.3507 -4.44619 -0.763727 18.8205 -1.1166
lowerback 9.67637 -1.87325 -5.15642
upperback -0.894815 -3.16208 -1.01275
thorax -6.1563 -1.39442 2.29739
lowerneck -13.6925 0.482262 4.65079
upperneck 41.1054 -0.935487 0.91351
head 17.4048 0.54761 -0.56849
rclavicle -3.68e-014 -3.97569e-015
rhumerus -37.3749 -10.6215 -77.0215
rradius 26.8049
rwrist -1.09111
rhand -42.517 -4.4191
rfingers 7.12502
rthumb -15.3932 -33.826
lclavicle -3.68e-014 -3.97569e-015
lhumerus -20.0717 -12.1084 84.5489
lradius 36.6836
lwrist 25.6149
lhand -26.7032 16.6043
lfingers 7.12502
lthumb -0.133443 46.584
rfemur -39.9974 11.7887 15.999
rtibia 58.2347
rfoot -14.235 7.36665
rtoes -14.9003
lfemur -1.81231 -28.7789 -13.4259
ltibia 27.6757
lfoot -7.02573 -14.1941
ltoes 1.17629
117
root 2.55149 18.3522 -4.21642 -0.555788 18.8927 -0.991384
lowerback 9.6119 -1.97526 -5.22504
upperback -0.970994 -3.30812 -1.06313
thorax -6.18917 -1.46244 2.30209
lowerneck -13.7237 0.511868 4.64485
upperneck 40.9838 -0.868123 0.857235
head 17.3439 0.561651 -0.581941
rclavicle 8.49059e-014 2.46493e-014
rhumerus -38.0198 -10.7703 -76.9275
rradius 27.1112
rwrist -1.7137
rhand -42.5402 -4.27504
rfingers 7.12502
rthumb -15.4155 -33.6803
lclavicle 8.49059e-014 2.46493e-014
lhumerus -19.9155 -11.778 84.5614
lradius 36.3285
lwrist 25.3474
lhand -26.5447 16.4659
lfingers 7.12502
lthumb 0.0196936 46.4456
rfemur -40.2986 11.7954 15.7423
rtibia 58.1125
rfoot -14.1189 7.29521
rtoes -14.7139
lfemur -1.34366 -28.8876 -13.7258
ltibia 28.0338
lfoot -7.40572 -13.8756
ltoes 0.138051
118
root 2.55146 18.3559 -3.98903 -0.356962 18.96 -0.937458
lowerback 9.52995 -2.06725 -5.2422
upperback -1.03473 -3.4305 -1.06981
thorax -6.20063 -1.52079 2.31927
lowerneck -13.7319 0.537115 4.63664
upperneck 40.7617 -0.789643 0.767961
head 17.2201 0.572895 -0.608158
rclavicle 3.62285e-014 -4.77083e-015
rhumerus -38.6379 -10.7771 -76.854
rradius 27.4223
rwrist -2.34497
rhand -42.5315 -4.22195
rfingers 7.12502
rthumb -15.4071 -33.6278
lclavicle 3.62285e-014 -4.77083e-015
lhumerus -19.779 -11.4447 84.6303
lradius 36.0467
lwrist 25.1543
lhand -26.4449 16.3366
lfingers 7.12502
lthumb 0.116024 46.3163
rfemur -40.5584 11.8437 15.5717
rtibia 57.959
rfoot -14.0496 7.21484
rtoes -14.5134
lfemur -0.989353 -28.9061 -13.8973
ltibia 28.4784
lfoot -7.51932 -13.5545
ltoes -0.754269
119
root 2.55109 18.3606 -3.76381 -0.174605 19.0088 -0.938092
lowerback 9.43984 -2.14492 -5.21392
upperback -1.08855 -3.52583 -1.04713
thorax -6.19952 -1.56753 2.33731
lowerneck -13.7088 0.555851 4.631
upperneck 40.4644 -0.709064 0.654914
head 17.0471 0.580432 -0.645025
rclavicle -5.11871e-015 -1.66979e-014
rhumerus -39.2236 -10.6767 -76.7981
rradius 27.6917
rwrist -2.88017
rhand -42.4968 -4.22392
rfingers 7.12502
rthumb -15.3737 -33.6323
lclavicle -5.11871e-015 -1.66979e-014
lhumerus -19.6687 -11.1283 84.7436
lradius 35.826
lwrist 25.0188
lhand -26.4069 16.2156
lfingers 7.12502
lthumb 0.15274 46.1953
rfemur -40.7724 11.9229 15.4758
rtibia 57.7953
rfoot -14.0153 7.14871
rtoes -14.2828
lfemur -0.703756 -28.8355 -13.9632
ltibia 28.9619
lfoot -7.36167 -13.2528
ltoes -1.37512
120
root 2.55077 18.3653 -3.54094 -0.0156559 19.0293 -0.978103
lowerback 9.3525 -2.20367 -5.1463
upperback -1.13021 -3.59009 -1.00664
thorax -6.19047 -1.60058 2.3475
lowerneck -13.6722 0.567553 4.6316
upperneck 40.1288 -0.634458 0.527503
head 16.8515 0.583927 -0.690002
rclavicle 2.69353e-014 1.03368e-014
rhumerus -39.7614 -10.5093 -76.7532
rradius 27.8873
rwrist -3.24833
rhand -42.4326 -4.29335
rfingers 7.12502
rthumb -15.3118 -33.7065
lclavicle 2.69353e-014 1.03368e-014
lhumerus -19.5727 -10.8483 84.8923
lradius 35.6467
lwrist 24.9156
lhand -26.4189 16.1068
lfingers 7.12502
lthumb 0.141189 46.0865
rfemur -40.9408 12.0139 15.4473
rtibia 57.6436
rfoot -14.004 7.11174
rtoes -14.0488
lfemur -0.444877 -28.6663 -13.9486
ltibia 29.4414
lfoot -6.95801 -12.976
ltoes -1.70727
121
root 2.55063 18.3697 -3.32039 0.1225 19.0195 -1.0252
lowerback 9.27926 -2.24105 -5.05881
upperback -1.16439 -3.62439 -0.966753
thorax -6.18494 -1.61963 2.34237
lowerneck -13.6309 0.574934 4.6352
upperneck 39.7929 -0.569593 0.405285
head 16.6573 0.58506 -0.734189
rclavicle -4.99943e-014 -1.82882e-014
rhumerus -40.2492 -10.3196 -76.7129
rradius 27.9855
rwrist -3.40669
rhand -42.3459 -4.39389
rfingers 7.12502
rthumb -15.2284 -33.8134
lclavicle -4.99943e-014 -1.82882e-014
lhumerus -19.4928 -10.6269 85.0662
lradius 35.4971
lwrist 24.8316
lhand -26.4695 16.0035
lfingers 7.12502
lthumb 0.092312 45.9832
rfemur -41.0654 12.1028 15.4584
rtibia 57.5224
rfoot -14.0106 7.11817
rtoes -13.8319
lfemur -0.175331 -28.4169 -13.8989
ltibia 29.8821
lfoot -6.35953 -12.7056
ltoes -1.72076
122
root 2.55112 18.3736 -3.10227 0.244685 18.9783 -1.05475
lowerback 9.22461 -2.25908 -4.96396
upperback -1.19431 -3.63394 -0.939247
thorax -6.18857 -1.62677 2.31765
lowerneck -13.594 0.576638 4.63359
upperneck 39.4904 -0.519401 0.299414
head 16.4846 0.582841 -0.772129
rclavicle -2.20899e-014 -3.10104e-014
rhumerus -40.6915 -10.1327 -76.6726
rradius 27.9854
rwrist -3.3477
rhand -42.2444 -4.49314
rfingers 7.12502
rthumb -15.1306 -33.9201
lclavicle -2.20899e-014 -3.10104e-014
lhumerus -19.4288 -10.4652 85.256
lradius 35.3657
lwrist 24.7446
lhand -26.5427 15.9073
lfingers 7.12502
lthumb 0.0216289 45.887
rfemur -41.1525 12.1754 15.4847
rtibia 57.4445
rfoot -14.0247 7.1711
rtoes -13.6263
lfemur 0.127615 -28.1076 -13.8523
ltibia 30.2635
lfoot -5.6214 -12.4238
ltoes -1.40447
123
root 2.55214 18.377 -2.88676 0.354727 18.9084 -1.05128
lowerback 9.19289 -2.26025 -4.87084
upperback -1.22066 -3.62383 -0.932944
thorax -6.20422 -1.62423 2.27016
lowerneck -13.5725 0.575229 4.62933
upperneck 39.242 -0.482268 0.211844
head 16.3465 0.579004 -0.803378
rclavicle 3.3197e-014 1.43125e-014
rhumerus -41.081 -9.97427 -76.6306
rradius 27.8916
rwrist -3.09928
rhand -42.1336 -4.56996
rfingers 7.12502
rthumb -15.0239 -34.0049
lclavicle 3.3197e-014 1.43125e-014
lhumerus -19.3754 -10.3583 85.4504
lradius 35.2458
lwrist 24.6315
lhand -26.6109 15.8222
lfingers 7.12502
lthumb -0.0442852 45.8019
rfemur -41.2077 12.2331 15.5091
rtibia 57.4141
rfoot -14.0469 7.26489
rtoes -13.4746
lfemur 0.476396 -27.7507 -13.8316
ltibia 30.5757
lfoot -4.79819 -12.1104
ltoes -0.785136
124
root 2.55373 18.3802 -2.67369 0.452891 18.8147 -1.01105
lowerback 9.18201 -2.25025 -4.78468
upperback -1.24253 -3.60195 -0.94677
thorax -6.22868 -1.61581 2.20486
lowerneck -13.5752 0.57207 4.61446
upperneck 39.063 -0.456102 0.147342
head 16.2521 0.574131 -0.824338
rclavicle 1.53064e-014 -1.59028e-015
rhumerus -41.4212 -9.8531 -76.5814
rradius 27.7285
rwrist -2.70382
rhand -42.0258 -4.61291
rfingers 7.12502
rthumb -14.92 -34.0556
lclavicle 1.53064e-014 -1.59028e-015
lhumerus -19.3307 -10.2878 85.6429
lradius 35.1353
lwrist 24.4847
lhand -26.6604 15.7216
lfingers 7.12502
lthumb -0.0921157 45.7014
rfemur -41.2318 12.2647 15.5282
rtibia 57.429
rfoot -14.0757 7.39532
rtoes -13.3751
lfemur 0.875013 -27.3591 -13.8488
ltibia 30.8174
lfoot -3.95092 -11.7488
ltoes 0.0331883
125
root 2.55585 18.3835 -2.46312 0.543127 18.6989 -0.939834
lowerback 9.18627 -2.23182 -4.70553
upperback -1.26302 -3.57143 -0.976184
thorax -6.26143 -1.60296 2.1267
lowerneck -13.5953 0.570243 4.59317
upperneck 38.9502 -0.433587 0.0978671
head 16.1976 0.570599 -0.838204
rclavicle 2.01269e-015 4.77083e-015
rhumerus -41.7182 -9.76971 -76.5201
rradius 27.5164
rwrist -2.21622
rhand -41.9316 -4.59765
rfingers 7.12502
rthumb -14.8293 -34.047
lclavicle 2.01269e-015 4.77083e-015
lhumerus -19.2977 -10.2411 85.835
lradius 35.0347
lwrist 24.2939
lhand -26.6889 15.6111
lfingers 7.12502
lthumb -0.119602 45.5908
rfemur -41.2319 12.2912 15.5387
rtibia 57.4794
rfoot -14.116 7.54951
rtoes -13.3114
lfemur 1.31538 -26.9458 -13.9002
ltibia 30.9899
lfoot -3.13874 -11.3421
ltoes 0.933802
126
root 2.55837 18.3871 -2.2547 0.625067 18.5703 -0.846802
lowerback 9.19687 -2.20979 -4.63462
upperback -1.28032 -3.53778 -1.01399
thorax -6.29458 -1.58849 2.04412
lowerneck -13.6276 0.570498 4.56761
upperneck 38.8927 -0.411475 0.0577203
head 16.1752 0.568939 -0.847376
rclavicle -4.42296e-015 1.03368e-014
rhumerus -41.9727 -9.72641 -76.4404
rradius 27.2862
rwrist -1.70786
rhand -41.8434 -4.55069
rfingers 7.12502
rthumb -14.7443 -34.0063
lclavicle -4.42296e-015 1.03368e-014
lhumerus -19.2782 -10.2042 86.0274
lradius 34.9485
lwrist 24.0634
lhand -26.6875 15.4704
lfingers 7.12502
lthumb -0.118286 45.4501
rfemur -41.2061 12.3147 15.5461
rtibia 57.5538
rfoot -14.1751 7.71893
rtoes -13.2858
lfemur 1.78953 -26.5278 -13.9776
ltibia 31.0951
lfoot -2.40667 -10.9145
ltoes 1.80116
